<svg id="Layer_1" data-name="Layer 1" xmlns="http://www.w3.org/2000/svg" viewBox="0 0 22.37 24"><defs><style>.cls-1{fill:#3e3947;}</style></defs><title>down-arrow</title><path class="cls-1" d="M1.52,12.87,3.8,10.58,12,18.75l8.2-8.17,2.27,2.29L12,23.29ZM1.52,3,3.8.71,12,8.87,20.2.71,22.48,3,12,13.42Z" transform="translate(-0.81)"/><path class="cls-1" d="M3.8,1.41l7.5,7.46.71.7.71-.7,7.5-7.46L21.77,3,12,12.72,2.23,3,3.8,1.41m16.4,9.87,1.57,1.58L12,22.59,2.23,12.86,3.8,11.29l7.5,7.46.71.7.71-.7,7.5-7.46M20.2,0,12,8.17,3.8,0l-3,3L12,14.13,23.18,3l-3-3Zm0,9.87L12,18,3.8,9.87l-3,3L12,24,23.19,12.87l-3-3Z" transform="translate(-0.81)"/></svg>